<svg width="370" height="106" viewBox="0 0 370 106" fill="none" xmlns="http://www.w3.org/2000/svg">
<path d="M149 52.6266C149 28.1963 129.273 8.39234 104.939 8.39234C99.1177 8.39234 93.5717 9.52864 88.4784 11.5902C81.4609 4.43155 71.7108 0 60.9259 0C40.2292 0 23.3161 16.3626 22.3298 36.8971C9.24883 42.2214 0 55.094 0 70.158C0 89.9458 15.9914 106 35.7018 106C40.2454 106 44.5787 105.156 48.5725 103.598C48.5725 103.598 60.9582 98.7277 73.0852 97.7213C84.5977 96.7636 103.031 96.861 104.842 96.861C104.874 96.861 104.89 96.861 104.923 96.861C104.939 96.861 104.939 96.861 104.955 96.861C104.987 96.861 105.003 96.861 105.003 96.861C129.306 96.8285 149 77.0407 149 52.6266Z" fill="#F97316"/>
<path d="M96.8541 70.6937C85.3577 70.6937 75.9957 61.295 75.9957 49.7534C75.9957 38.2119 85.3577 28.8132 96.8541 28.8132C108.35 28.8132 117.712 38.2119 117.712 49.7534C117.712 61.295 108.35 70.6937 96.8541 70.6937ZM96.8541 38.5528C90.7098 38.5528 85.6973 43.585 85.6973 49.7534C85.6973 55.9219 90.7098 60.9541 96.8541 60.9541C102.998 60.9541 108.011 55.9219 108.011 49.7534C108.011 43.585 102.998 38.5528 96.8541 38.5528Z" fill="white"/>
<path d="M124.423 68.1776C126.834 68.1776 128.788 66.2154 128.788 63.7948C128.788 61.3742 126.834 59.4119 124.423 59.4119C122.012 59.4119 120.057 61.3742 120.057 63.7948C120.057 66.2154 122.012 68.1776 124.423 68.1776Z" fill="white"/>
<path d="M72.681 34.2187C72.6648 31.5403 70.4981 29.3813 67.8302 29.3813C67.814 29.3813 67.814 29.3813 67.7978 29.3813C65.1137 29.3976 62.9632 31.589 62.9794 34.2836C62.9794 34.3323 62.9632 38.4717 61.5242 44.1856C60.554 48.0166 58.7592 53.1948 55.5092 58.3569C53.0515 56.8797 49.7044 54.5259 47.085 51.5066C42.3797 46.0849 41.2964 38.8451 41.2802 38.7801V38.7964H41.2479C40.8598 36.4913 38.871 34.7382 36.4618 34.7382C33.7777 34.7382 31.611 36.9134 31.611 39.608C31.611 40.0625 31.6757 40.5008 31.7888 40.9229C32.2577 43.4876 34.1172 51.4255 39.7603 57.9023C42.8163 61.4249 46.4867 64.152 49.4457 66.035C39.4692 76.7811 32.4679 78.9725 32.3386 79.0374C29.897 80.1412 28.8137 83.0307 29.9132 85.4818C30.7217 87.2837 32.4841 88.355 34.3436 88.355C35.0065 88.355 35.6856 88.2089 36.3324 87.9167C37.0277 87.6083 46.3735 84.5079 58.8886 70.0769C72.6486 54.185 72.681 35.0304 72.681 34.2187Z" fill="white"/>
<path d="M143.891 7.06124C141.352 6.21714 138.603 7.59692 137.762 10.1455L126.056 52.4968C125.975 52.7565 125.926 53.0162 125.926 53.2922C125.926 54.7369 127.091 55.9056 128.53 55.9056C129.613 55.9056 130.551 55.2401 130.939 54.2824H130.955L146.963 13.2135C147.82 10.6811 146.445 7.92158 143.891 7.06124Z" fill="white"/>
<path d="M191.48 81.3C186.147 81.3 181.72 80.5533 178.2 79.06C174.68 77.5133 172.013 75.5133 170.2 73.06C168.387 70.6067 167.427 67.9933 167.32 65.22C167.32 64.7933 167.48 64.42 167.8 64.1C168.173 63.7267 168.6 63.54 169.08 63.54H179.16C179.907 63.54 180.467 63.6733 180.84 63.94C181.267 64.2067 181.64 64.5533 181.96 64.98C182.387 65.78 182.973 66.5533 183.72 67.3C184.52 68.0467 185.533 68.66 186.76 69.14C188.04 69.5667 189.613 69.78 191.48 69.78C194.573 69.78 196.893 69.3 198.44 68.34C200.04 67.38 200.84 66.0733 200.84 64.42C200.84 63.2467 200.413 62.2867 199.56 61.54C198.707 60.74 197.32 60.0467 195.4 59.46C193.533 58.82 191.027 58.18 187.88 57.54C183.827 56.6867 180.36 55.5933 177.48 54.26C174.653 52.8733 172.493 51.0867 171 48.9C169.507 46.66 168.76 43.8867 168.76 40.58C168.76 37.3267 169.667 34.42 171.48 31.86C173.347 29.3 175.933 27.3 179.24 25.86C182.547 24.42 186.467 23.7 191 23.7C194.68 23.7 197.907 24.18 200.68 25.14C203.507 26.1 205.88 27.38 207.8 28.98C209.72 30.58 211.16 32.2867 212.12 34.1C213.133 35.86 213.667 37.5933 213.72 39.3C213.72 39.7267 213.56 40.1267 213.24 40.5C212.92 40.82 212.52 40.98 212.04 40.98H201.48C200.893 40.98 200.387 40.8733 199.96 40.66C199.533 40.4467 199.16 40.1 198.84 39.62C198.52 38.4467 197.667 37.4333 196.28 36.58C194.947 35.6733 193.187 35.22 191 35.22C188.653 35.22 186.813 35.6467 185.48 36.5C184.2 37.3 183.56 38.5533 183.56 40.26C183.56 41.3267 183.907 42.26 184.6 43.06C185.347 43.86 186.547 44.5533 188.2 45.14C189.907 45.7267 192.227 46.34 195.16 46.98C200.013 47.8867 203.933 49.0333 206.92 50.42C209.907 51.7533 212.093 53.5133 213.48 55.7C214.867 57.8333 215.56 60.5267 215.56 63.78C215.56 67.4067 214.52 70.5533 212.44 73.22C210.413 75.8333 207.587 77.8333 203.96 79.22C200.333 80.6067 196.173 81.3 191.48 81.3ZM224.689 80.5C224.102 80.5 223.622 80.3133 223.249 79.94C222.875 79.5667 222.689 79.0867 222.689 78.5V25.7C222.689 25.1133 222.875 24.6333 223.249 24.26C223.622 23.8867 224.102 23.7 224.689 23.7H234.929C235.515 23.7 235.995 23.8867 236.369 24.26C236.742 24.6333 236.929 25.1133 236.929 25.7V43.54C238.369 41.8867 240.129 40.58 242.209 39.62C244.342 38.6067 246.795 38.1 249.569 38.1C252.662 38.1 255.409 38.7933 257.809 40.18C260.262 41.5667 262.182 43.62 263.569 46.34C264.955 49.0067 265.649 52.2867 265.649 56.18V78.5C265.649 79.0867 265.462 79.5667 265.089 79.94C264.715 80.3133 264.235 80.5 263.649 80.5H253.329C252.795 80.5 252.315 80.3133 251.889 79.94C251.515 79.5667 251.329 79.0867 251.329 78.5V56.66C251.329 54.1533 250.715 52.2333 249.489 50.9C248.315 49.5133 246.555 48.82 244.209 48.82C242.022 48.82 240.262 49.5133 238.929 50.9C237.595 52.2333 236.929 54.1533 236.929 56.66V78.5C236.929 79.0867 236.742 79.5667 236.369 79.94C235.995 80.3133 235.515 80.5 234.929 80.5H224.689ZM294.4 81.3C289.92 81.3 286.133 80.58 283.04 79.14C280 77.7 277.653 75.6467 276 72.98C274.4 70.26 273.493 67.0333 273.28 63.3C273.227 62.2333 273.2 61.0333 273.2 59.7C273.2 58.3133 273.227 57.1133 273.28 56.1C273.493 52.3133 274.453 49.0867 276.16 46.42C277.867 43.7533 280.24 41.7 283.28 40.26C286.373 38.82 290.08 38.1 294.4 38.1C298.773 38.1 302.48 38.82 305.52 40.26C308.613 41.7 311.013 43.7533 312.72 46.42C314.427 49.0867 315.387 52.3133 315.6 56.1C315.653 57.1133 315.68 58.3133 315.68 59.7C315.68 61.0333 315.653 62.2333 315.6 63.3C315.387 67.0333 314.453 70.26 312.8 72.98C311.2 75.6467 308.853 77.7 305.76 79.14C302.72 80.58 298.933 81.3 294.4 81.3ZM294.4 71.54C296.8 71.54 298.533 70.82 299.6 69.38C300.72 67.94 301.36 65.78 301.52 62.9C301.573 62.1 301.6 61.0333 301.6 59.7C301.6 58.3667 301.573 57.3 301.52 56.5C301.36 53.6733 300.72 51.54 299.6 50.1C298.533 48.6067 296.8 47.86 294.4 47.86C292.053 47.86 290.32 48.6067 289.2 50.1C288.08 51.54 287.467 53.6733 287.36 56.5C287.307 57.3 287.28 58.3667 287.28 59.7C287.28 61.0333 287.307 62.1 287.36 62.9C287.467 65.78 288.08 67.94 289.2 69.38C290.32 70.82 292.053 71.54 294.4 71.54ZM325.548 95.7C324.961 95.7 324.481 95.5133 324.108 95.14C323.735 94.7667 323.548 94.2867 323.548 93.7V40.9C323.548 40.3133 323.735 39.8333 324.108 39.46C324.481 39.0867 324.961 38.9 325.548 38.9H334.588C335.121 38.9 335.575 39.0867 335.948 39.46C336.375 39.8333 336.588 40.3133 336.588 40.9V43.86C337.815 42.2067 339.441 40.8467 341.468 39.78C343.495 38.66 346.001 38.1 348.988 38.1C351.655 38.1 354.001 38.5267 356.028 39.38C358.055 40.18 359.788 41.38 361.228 42.98C362.668 44.58 363.788 46.5267 364.588 48.82C365.441 51.1133 365.921 53.7533 366.028 56.74C366.081 57.8067 366.108 58.7933 366.108 59.7C366.108 60.6067 366.081 61.5933 366.028 62.66C365.921 65.54 365.468 68.1267 364.668 70.42C363.868 72.7133 362.748 74.66 361.308 76.26C359.868 77.86 358.108 79.1133 356.028 80.02C354.001 80.8733 351.655 81.3 348.988 81.3C346.375 81.3 344.081 80.8467 342.108 79.94C340.188 78.98 338.588 77.6467 337.308 75.94V93.7C337.308 94.2867 337.121 94.7667 336.748 95.14C336.375 95.5133 335.895 95.7 335.308 95.7H325.548ZM344.668 70.58C346.481 70.58 347.895 70.2067 348.908 69.46C349.921 68.7133 350.641 67.7 351.068 66.42C351.548 65.14 351.841 63.7267 351.948 62.18C352.055 60.5267 352.055 58.8733 351.948 57.22C351.841 55.6733 351.548 54.26 351.068 52.98C350.641 51.7 349.921 50.6867 348.908 49.94C347.895 49.1933 346.481 48.82 344.668 48.82C342.908 48.82 341.495 49.22 340.428 50.02C339.361 50.7667 338.588 51.7533 338.108 52.98C337.628 54.2067 337.361 55.54 337.308 56.98C337.255 57.9933 337.228 58.98 337.228 59.94C337.228 60.9 337.255 61.9133 337.308 62.98C337.361 64.3133 337.655 65.5667 338.188 66.74C338.721 67.86 339.521 68.7933 340.588 69.54C341.655 70.2333 343.015 70.58 344.668 70.58Z" fill="#215988"/>
</svg>
